<svg fill="#fff" id="sae_logo" xmlns="http://www.w3.org/2000/svg" width="296.7" height="190.9" viewBox="0 0 296.7 190.9">
  <title>sae_logo</title>
  <rect class="cls-1" x="0.6" y="165.4" width="3.9" height="24.51"/>
  <path class="cls-1" d="M71.4,181.9v.6c0,3,1.3,4.5,4,4.5a3.5,3.5,0,0,0,3.7-3.6c0-2.6-1.3-3.7-3.5-4.3l-2.7-1c-3.6-1.3-5.1-3.2-5.1-6.7s3-6.9,7.6-6.9c6.3,0,7,3.9,7,6.4v.6h-4V171c0-2.3-1-3.6-3.4-3.6s-3.3.9-3.3,3.6,1.1,3.1,3.7,4.1l2.6,1c3.5,1.2,5,3.1,5,6.5,0,5.2-3.2,7.3-8.1,7.3s-7.4-4-7.4-7.4v-.6Z" transform="translate(0.5 0.5)"/>
  <polygon class="cls-1" points="111 168.7 105.2 168.7 105.2 165.5 120.7 165.5 120.7 168.7 115 168.7 115 190 111 190 111 168.7"/>
  <rect class="cls-1" x="143.1" y="165.5" width="3.9" height="24.51"/>
  <polygon class="cls-1" points="175.3 168.7 169.5 168.7 169.5 165.5 185 165.5 185 168.7 179.2 168.7 179.2 190 175.3 190 175.3 168.7"/>
  <path class="cls-1" d="M210.7,165v17.5c0,3.1,1.2,4.5,3.6,4.5s3.5-1.4,3.5-4.5V165h4v17.2c0,5.7-2.9,7.7-7.5,7.7s-7.5-2-7.5-7.7V165Z" transform="translate(0.5 0.5)"/>
  <polygon class="cls-1" points="250.4 168.7 244.5 168.7 244.5 165.5 260 165.5 260 168.7 254.3 168.7 254.3 190 250.4 190 250.4 168.7"/>
  <polygon class="cls-1" points="282.6 165.5 295.9 165.5 295.9 168.7 286.5 168.7 286.5 175.5 295.3 175.5 295.3 178.8 286.5 178.8 286.5 186.7 296.2 186.7 296.2 190 282.6 190 282.6 165.5"/>
  <path class="cls-1" d="M110.5,48.2H188V39.7H138.7a50.6,50.6,0,0,0-28.2,8.5" transform="translate(0.5 0.5)"/>
  <path class="cls-1" d="M188,53.6H103.7a60.1,60.1,0,0,0-7.4,8.5H188Z" transform="translate(0.5 0.5)"/>
  <path class="cls-1" d="M61.8,67.5H12a55.8,55.8,0,0,0,11.8,8.6H73a52.9,52.9,0,0,0-11.2-8.6" transform="translate(0.5 0.5)"/>
  <path class="cls-1" d="M7.3,62.1H50.2l-5.6-1.7a49,49,0,0,1-14.3-6.8H2.7a33.2,33.2,0,0,0,4.6,8.5" transform="translate(0.5 0.5)"/>
  <polygon class="cls-1" points="290.3 81.9 263.8 81.9 245.3 111.6 271.7 111.6 290.3 81.9"/>
  <path class="cls-1" d="M24.3,34.3A18.8,18.8,0,0,1,41.6,22.5H295.7V0H41.6A41.2,41.2,0,0,0,1.1,34.3Z" transform="translate(0.5 0.5)"/>
  <path class="cls-1" d="M216.5,48.2h79.2V39.7h-51a50.6,50.6,0,0,0-28.2,8.5" transform="translate(0.5 0.5)"/>
  <polygon class="cls-1" points="272.5 68 267.2 76.6 293.7 76.6 296.2 72.6 296.2 68 272.5 68"/>
  <rect class="cls-1" x="166" y="68" width="22.5" height="8.55"/>
  <path class="cls-1" d="M110,90.9a30.1,30.1,0,0,1,1.6-9.5H88.4a50.1,50.1,0,0,0-.9,9.5,51.3,51.3,0,0,0,51.2,51.3h17.2V119.7H138.7A28.8,28.8,0,0,1,110,90.9" transform="translate(0.5 0.5)"/>
  <path class="cls-1" d="M36.6,81.4l2.1.7c8.4,2.3,22.6,8.9,22.6,19.1a18.7,18.7,0,0,1-18.7,18.7H0v22.5H42.6a41.3,41.3,0,0,0,41.2-41.2,34.1,34.1,0,0,0-6.3-19.8Z" transform="translate(0.5 0.5)"/>
  <rect class="cls-1" x="166" y="81.9" width="22.5" height="60.74"/>
  <path class="cls-1" d="M216,90.9a30.1,30.1,0,0,1,1.6-9.5H194.4a50.1,50.1,0,0,0-.9,9.5,51.3,51.3,0,0,0,51.2,51.3h51V119.7h-51A28.8,28.8,0,0,1,216,90.9" transform="translate(0.5 0.5)"/>
  <path class="cls-1" d="M209.7,53.6a60.1,60.1,0,0,0-7.4,8.5h93.4V53.6Z" transform="translate(0.5 0.5)"/>
  <path class="cls-1" d="M228.1,67.5H199.2a50,50,0,0,0-3.5,8.6h24.5a28.2,28.2,0,0,1,7.9-8.6" transform="translate(0.5 0.5)"/>
  <path class="cls-1" d="M122.1,67.5H93.2a50,50,0,0,0-3.5,8.6h24.5a28.2,28.2,0,0,1,7.9-8.6" transform="translate(0.5 0.5)"/>
  <path class="cls-1" d="M.5,39.7c0,.5-.1,1-.1,1.5a38.6,38.6,0,0,0,.7,7h24a12.6,12.6,0,0,1-2.2-7c0-.5.1-1,.1-1.5Z" transform="translate(0.5 0.5)"/>
  <polygon class="cls-1" points="40.7 165.5 40.7 183.7 40.6 183.7 33.5 165.5 28.8 165.5 28.8 190 32.5 190 32.5 171.2 32.5 171.2 39.6 190 44.4 190 44.4 165.5 40.7 165.5"/>
</svg>
